<svg width="40" height="40" viewBox="0 0 40 40" fill="none" xmlns="http://www.w3.org/2000/svg">
<path d="M40 20C40 31.0457 31.0457 40 20 40C8.95431 40 0 31.0457 0 20C0 8.95431 8.95431 0 20 0C31.0457 0 40 8.95431 40 20Z" fill="url(#paint0_linear_94_86)"/>
<path d="M12.9915 26.3188H8.12489V13.6706H12.9421C14.2431 13.6706 15.3671 13.9238 16.3141 14.4303C17.2652 14.9326 17.9981 15.6572 18.5127 16.6042C19.0315 17.547 19.2909 18.6772 19.2909 19.9947C19.2909 21.3123 19.0336 22.4445 18.5189 23.3915C18.0043 24.3343 17.2755 25.059 16.3326 25.5654C15.3898 26.0677 14.2761 26.3188 12.9915 26.3188ZM11.5587 23.4038H12.868C13.4938 23.4038 14.027 23.303 14.4675 23.1012C14.9122 22.8995 15.2498 22.5515 15.4804 22.0575C15.7151 21.5634 15.8324 20.8758 15.8324 19.9947C15.8324 19.1136 15.713 18.4261 15.4742 17.932C15.2395 17.4379 14.8937 17.09 14.4366 16.8883C13.9837 16.6865 13.4279 16.5856 12.7692 16.5856H11.5587V23.4038Z" fill="white"/>
<path d="M31.8233 13.6706V26.3188H28.9577L24.3875 19.6736H24.3134V26.3188H20.8796V13.6706H23.7947L28.2907 20.2912H28.3895V13.6706H31.8233Z" fill="white"/>
<defs>
<linearGradient id="paint0_linear_94_86" x1="2.22222" y1="32.2222" x2="35" y2="4.44444" gradientUnits="userSpaceOnUse">
<stop stop-color="#325FA2"/>
<stop offset="1" stop-color="#5786CB"/>
</linearGradient>
</defs>
</svg>
