<svg width="76" height="30" viewBox="0 0 76 30" fill="none" xmlns="http://www.w3.org/2000/svg">
<g clip-path="url(#clip0_94_64)">
<path fill-rule="evenodd" clip-rule="evenodd" d="M20.876 3.45004C37.4346 3.45004 60.6598 4.95483 71.6271 9.47115C72.7025 9.90102 73.4552 10.2238 73.4552 10.9764C73.4552 12.0514 71.1973 12.6964 69.1535 13.3414C60.9821 15.9221 46.4663 18.9322 25.0696 20.438L5.39288 0.65417C3.45773 0.65417 1.84437 0.761758 0.661865 0.869348L21.0912 21.2987L15.5 29.3626C48.5095 24.0936 63.4552 18.9327 70.1218 15.9226C71.52 15.1695 75.6055 13.4495 75.6055 10.9764C75.6055 9.47115 74.2073 8.61092 72.4869 7.85829C65.606 4.95483 54.2078 3.01968 42.9178 2.05186C31.1978 0.869351 15.6071 0.54658 7.00526 0.65417L25.3919 19.0413C28.9399 18.8256 32.3808 18.5028 35.6065 18.1805L20.876 3.45004Z" fill="#F1EDEB"/>
</g>
<defs>
<clipPath id="clip0_94_64">
<rect width="75" height="28.7879" fill="white" transform="translate(0.639648 0.605957)"/>
</clipPath>
</defs>
</svg>
