<svg width="60" height="50" viewBox="0 0 60 50" fill="none" xmlns="http://www.w3.org/2000/svg">
<g clip-path="url(#clip0_94_66)">
<path fill-rule="evenodd" clip-rule="evenodd" d="M43.8001 4.38428C42.3579 10.4477 41.8927 13.2929 40.8226 17.6772C39.7526 21.9682 38.9151 25.8861 37.5194 27.7518C36.1237 29.6175 34.2162 30.1306 32.774 30.2238C32.0761 30.3638 31.6109 30.3638 30.1686 30.3638C28.7264 30.3638 28.1681 30.3638 27.5633 30.2238C26.2606 30.0839 24.3531 29.6175 22.8178 27.7518C21.3756 25.8395 20.5847 21.9216 19.5146 17.6772C18.4446 13.2929 17.8398 10.4477 16.5371 4.38428C16.5371 4.38428 15.2344 4.38428 14.5366 4.5242C13.6992 4.5242 13.0943 4.5242 12.3965 4.66413C12.3965 4.66413 13.2339 17.2574 13.5596 22.4813C13.9318 28.0783 14.6296 37.4067 15.2344 44.5429C15.2344 44.5429 16.3975 44.7761 18.305 44.7761C20.2125 45.0093 21.143 45.1492 21.143 45.1492C21.9804 42.0709 23.0505 37.6865 24.1205 35.7742C25.051 34.235 26.4932 34.0951 27.3307 34.0018C28.6333 33.8619 29.7034 33.7686 30.1686 33.7686C30.6339 33.7686 31.7039 33.7686 33.0066 34.0018C33.844 34.1417 35.2397 34.235 36.2167 35.7742C37.3798 37.6865 38.3568 41.9309 39.1943 45.1492C39.1943 45.1492 40.0317 45.1492 42.0322 45.0093C43.9397 44.8694 45.1028 44.7761 45.1028 44.7761C45.7076 37.6399 46.4055 28.2649 46.7777 22.7145C47.1499 17.3973 47.9408 4.89734 47.9408 4.89734C47.2429 4.75741 46.6381 4.75741 45.8007 4.66413C45.2424 4.38428 43.8001 4.38428 43.8001 4.38428Z" fill="#F1EDEB"/>
<path fill-rule="evenodd" clip-rule="evenodd" d="M56.2683 25.7463C55.8031 32.2761 55.1983 36.2873 54.5004 39.1325C53.8026 41.6045 52.9651 43.2836 51.6625 44.4496C49.5224 46.4552 46.5914 46.9216 44.9165 47.2015C41.2411 47.8078 34.9604 48.041 30.1219 48.041C25.2834 48.041 19.0027 47.8078 15.3273 47.2015C13.6524 46.9683 10.7214 46.5019 8.58132 44.4496C7.27865 43.2836 6.44122 41.6045 5.74336 39.1325C4.90593 36.2873 4.39417 32.3694 3.92893 25.7463C3.69631 21.8284 3.69631 15.2985 4.16155 11.847C4.76636 6.76306 7.23213 4.15112 12.4428 3.17164C14.676 2.70522 18.0257 2.33209 21.0963 2.23881C23.6085 2.14552 27.7492 2.0056 29.9823 2.0056C32.2155 2.0056 36.3561 2.14552 38.8684 2.23881C41.939 2.37873 45.2422 2.70522 47.7545 3.17164C52.9651 4.10448 55.4309 6.71642 56.0357 11.847C56.3614 15.4384 56.501 21.8284 56.2683 25.7463ZM59.1063 11.9869C58.2689 3.77799 53.0582 2.0056 48.4523 1.21269C46.0796 0.839552 42.0785 0.51306 39.3336 0.373134C37.054 0.139925 31.6107 0 29.9823 0C28.3075 0 22.8642 0.139925 20.631 0.233209C18.0257 0.373134 13.885 0.699627 11.5123 1.16604C6.90646 2.0056 1.69578 3.63806 0.858352 11.9403C0.625732 14.1791 0.625732 17.1642 0.625732 20.2425C0.765304 25.4664 1.09097 29.0112 1.32359 31.3899C1.46316 33.069 2.16102 38.153 2.99845 40.625C4.16155 44.1698 5.2316 45.2425 6.44122 46.3153C8.67437 48.2276 12.4893 48.7873 13.3268 49.0672C17.607 49.9067 26.1208 50 29.8893 50C33.6577 50 42.2181 49.8601 46.4518 49.0672C47.2892 48.9272 50.9646 48.3675 53.3373 46.3153C54.64 45.2425 55.5705 44.1698 56.7801 40.625C57.6175 38.0131 58.3154 33.0224 58.455 31.3899C58.6876 28.9179 59.1528 25.4664 59.1528 20.2425C59.3389 17.0709 59.3389 14.2257 59.1063 11.9869Z" fill="#F1EDEB"/>
</g>
<defs>
<clipPath id="clip0_94_66">
<rect width="58.6667" height="50" fill="white" transform="translate(0.639648)"/>
</clipPath>
</defs>
</svg>
