<svg width="63" height="42" viewBox="0 0 63 42" fill="none" xmlns="http://www.w3.org/2000/svg">
<path fill-rule="evenodd" clip-rule="evenodd" d="M62.6396 20.9446C62.6396 32.1194 48.6729 41.1551 31.4265 41.1551C14.18 41.1551 0.1765 32.0825 0.139648 20.9446C0.139648 13.0153 7.21515 6.15552 17.4967 2.83627C21.3661 1.58234 26.1568 0.844727 31.3896 0.844727C36.6225 0.844727 41.4132 1.58234 45.2826 2.83627C55.5641 6.15552 62.6396 13.0153 62.6396 20.9446ZM39.0548 21.6453V20.6495C48.0466 19.3218 54.5324 15.6338 54.5324 11.3557C54.5324 11.1713 54.5324 10.9869 54.4955 10.7656C56.7803 13.5316 58.107 16.7402 58.107 20.1701C58.107 29.9434 47.4201 37.9465 33.7851 38.7579C36.8437 36.4344 39.0548 29.6853 39.0548 21.6453ZM35.8856 16.0395C35.1854 11.5769 33.4534 8.40522 31.4266 8.40522C29.3997 8.40522 27.6309 11.5769 26.9676 16.0395C28.3679 16.1501 29.8788 16.2239 31.4266 16.2239C32.9743 16.2239 34.4484 16.187 35.8856 16.0395ZM31.4266 21.2396C33.0849 21.2396 34.6695 21.1659 36.2172 21.0184C36.1067 27.3987 34.0062 32.4513 31.4266 32.4513C28.847 32.4513 26.7464 27.3987 26.6359 21.0184C28.1836 21.1659 29.7682 21.2396 31.4266 21.2396ZM31.3897 3.68452C34.7432 3.68452 37.5808 8.70027 38.6126 15.7076C44.951 14.7118 49.4101 12.4621 49.3732 9.84356C49.3732 6.30304 41.3396 3.42636 31.3897 3.42636C21.4398 3.42636 13.4062 6.30304 13.4062 9.84356C13.4062 12.4621 17.8284 14.7118 24.1669 15.7076C25.2355 8.70027 28.0362 3.68452 31.3897 3.68452ZM8.32072 11.3557C8.32072 15.6707 14.7697 19.3218 23.7983 20.6495V21.6453C23.7983 29.6484 26.0094 36.4344 29.068 38.7579C15.433 37.9096 4.74611 29.9065 4.74611 20.1701C4.74611 16.7402 6.07277 13.5316 8.35756 10.7656C8.32072 10.9868 8.32072 11.1712 8.32072 11.3555V11.3557Z" fill="#F1EDEB"/>
</svg>
